<?xml version="1.0" encoding="utf-8"?>
<!-- Generator: Adobe Illustrator 26.1.0, SVG Export Plug-In . SVG Version: 6.00 Build 0)  -->
<svg version="1.1" id="Layer_1" xmlns="http://www.w3.org/2000/svg" xmlns:xlink="http://www.w3.org/1999/xlink" x="0px" y="0px"
	 viewBox="0 0 323.1 144.2" style="enable-background:new 0 0 323.1 144.2;" xml:space="preserve">
<style type="text/css">
	.st0{fill:#FFFFFF;}
</style>
<path class="st0" d="M234,0l-53.9,56.9v24.4l-18.7,16.5l-18.8-16.6V56.7L89.1,0.2H0c14.2,19.7,37.9,17.5,56.4,27.4H31
	c13.2,21.4,37.2,18.4,55.9,27.5h-25C72.2,69.8,87,75,102.8,78.2C121,82,130.2,97.5,144,107.6l-11.6,10.9l12.8,11.1l8.4-7.4
	c-1.6,4.9-2.6,8.3-3.7,11.6l11.7,10.3c4.1-3.7,7.7-6.9,11.6-10.5c-1.1-3.4-2.2-6.7-3.9-11.6l8.6,7.6l12.6-11.4L179.3,108
	c15.4-14.9,29.7-30.2,52.1-32.9c13.1-1.6,21-11,31.4-20.7h-26.7c10-4,19.9-7.2,30.1-8.6c11.8-1.6,17.9-10.3,25.5-18.6h-25.1
	c9.9-4.3,20.1-7.7,30.6-10.1C308,14.6,316,8.7,323.1,0H234z"/>
<path class="st0" d="M172.9,81.7c-0.2-2.6-0.4-5.2-0.6-9.4l-10.8,13.9l-11-14.2V82l11,9.6L172.9,81.7z"/>
</svg>
